:SAMPLES-PER-SECOND 30
:FRAME-RANGE 1-2009
:FULLY-SPECIFIED
:DEGREES
252
root  -57.1432 38.8371 70.5595 -2.10983 6.23128 -0.413803
RightUpLeg  1.65999 -4.4772 -0.348875
RightLeg  12.9275 1.93552 -0.508499
RightFoot  -11.9027 -0.0566975 4.91635
RightToes  4.71047e-010 1.2921e-014 -6.02303e-014
Spine  4.80738 -3.56564 -0.171335
Spine1  2.56296 -4.48092 4.558
HEad  11.4382 28.4352 -2.87643
LeftShoulder1  2.32106 -2.74434 -31.1227
LeftArm  74.3442 -25.8 -32.2885
LeftForeArm  -14.399 -18.067 -11.7391
LeftHand  -0.145569 -1.87 2.50041
RightShoulder  6.20746 7.98578 47.3237
RightArm  25.7499 -1.42358 18.5899
RightForeArm  7.59974 37.4504 8.13138
RightHand  0.314025 -1.08427 8.49662
LeftUpLeg  -20.4683 15.104 7.30431
LeftLeg  26.5114 -0.71188 -0.057968
LeftFoot  -0.635601 0.76896 -8.15799
LeftToes  2.15783e-011 -7.56106e-012 -8.20802e-012
253
root  -56.4874 38.8795 71.5816 -1.98814 5.58775 -0.526398
RightUpLeg  4.54467 -4.57543 -1.25729
RightLeg  10.3022 2.8855 -0.684841
RightFoot  -12.2458 -0.0357656 6.00026
RightToes  4.71047e-010 1.2921e-014 -6.02303e-014
Spine  4.17771 -3.83575 -1.52927
Spine1  2.84129 -4.96765 4.72336
HEad  11.4144 30.0714 -2.71932
LeftShoulder1  2.42027 -2.99925 -31.1951
LeftArm  66.6078 -30.344 -35.222
LeftForeArm  -10.6693 -15.9801 -13.6066
LeftHand  -0.136595 -1.68791 2.40154
RightShoulder  6.35386 8.38134 46.8153
RightArm  25.279 -1.08262 19.0226
RightForeArm  8.71109 38.8881 8.49977
RightHand  0.321332 -1.06776 8.79297
LeftUpLeg  -18.3492 16.7159 7.48133
LeftLeg  13.0245 -1.4134 -0.422244
LeftFoot  1.57914 1.10114 -9.79268
LeftToes  2.15783e-011 -7.56106e-012 -8.20802e-012
254
root  -55.7553 38.8019 72.6626 -2.36844 4.98843 -0.93045
RightUpLeg  7.84366 -4.73206 -2.04699
RightLeg  8.12541 3.82212 -0.984467
RightFoot  -13.0256 0.0191156 7.31254
RightToes  4.71047e-010 1.2921e-014 -6.02303e-014
Spine  3.86868 -4.25258 -2.69953
Spine1  3.31314 -5.54965 4.97735
HEad  11.4145 32.145 -2.48509
LeftShoulder1  2.48223 -3.19093 -31.0556
LeftArm  59.3351 -35.6597 -37.9962
LeftForeArm  -7.2397 -13.8881 -15.1602
LeftHand  -0.1187 -1.12226 2.23757
RightShoulder  6.44226 8.62586 46.501
RightArm  25.1242 -1.1241 19.082
RightForeArm  9.14335 39.5932 8.6937
RightHand  0.326908 -1.04758 8.96829
LeftUpLeg  -15.5219 12.3578 10.2715
LeftLeg  3.02658 7.74812 -2.64715
LeftFoot  2.46283 1.21089 -10.1081
LeftToes  2.15783e-011 -7.56106e-012 -8.20802e-012
255
root  -54.8832 38.5521 73.7604 -2.48608 4.41035 -1.20787
RightUpLeg  9.766 -4.97496 -3.18528
RightLeg  8.33419 5.11896 -1.35931
RightFoot  -14.9828 0.176328 8.73497
RightToes  4.71047e-010 1.2921e-014 -6.02303e-014
Spine  3.53336 -4.73031 -3.91277
Spine1  3.40633 -6.25446 5.76013
HEad  11.8124 34.4661 -2.07522
LeftShoulder1  2.53961 -3.45466 -30.4713
LeftArm  50.417 -41.0963 -40.6925
LeftForeArm  -2.88534 -11.1775 -16.7285
LeftHand  -0.115347 -0.781655 2.26463
RightShoulder  6.41875 8.67669 46.1275
RightArm  25.4318 -1.34023 18.9832
RightForeArm  8.8845 39.1162 8.5599
RightHand  0.326805 -0.983943 8.82452
LeftUpLeg  -13.9127 12.3812 10.4753
LeftLeg  -2.37028 16.376 -4.28188
LeftFoot  2.51813 1.2572 -10.4488
LeftToes  2.15783e-011 -7.56106e-012 -8.20802e-012
256
root  -53.9727 38.2704 74.879 -2.80861 3.93958 -0.94223
RightUpLeg  11.6796 -4.16372 -4.61905
RightLeg  9.11939 5.28093 -2.01222
RightFoot  -17.0843 0.414173 10.5469
RightToes  4.71047e-010 1.2921e-014 -6.02303e-014
Spine  3.76563 -5.10496 -6.26007
Spine1  3.42284 -6.90652 6.62122
HEad  12.4189 36.5744 -1.42443
LeftShoulder1  2.55683 -3.72234 -29.3422
LeftArm  40.9239 -46.7979 -43.4917
LeftForeArm  2.36948 -8.04104 -17.9806
LeftHand  -0.0928872 -0.288187 1.94698
RightShoulder  6.17702 8.30343 45.7854
RightArm  25.946 -1.85592 18.7304
RightForeArm  8.39213 37.5477 8.11163
RightHand  0.326364 -0.84473 8.51869
LeftUpLeg  -13.8282 12.2081 9.23619
LeftLeg  -0.654775 21.3348 -3.71177
LeftFoot  8.78251 0.729265 -4.41139
LeftToes  2.15783e-011 -7.56106e-012 -8.20802e-012
257
root  -53.0636 37.9515 76.003 -3.32909 3.41042 -0.186417
RightUpLeg  12.5822 0.819087 -5.56731
RightLeg  12.515 1.64816 -2.32509
RightFoot  -19.0515 0.746218 12.9492
RightToes  4.71047e-010 1.2921e-014 -6.02303e-014
Spine  4.1999 -5.16789 -9.73493
Spine1  3.49723 -7.633 8.75138
HEad  12.798 38.5267 -1.16799
LeftShoulder1  2.55551 -3.97433 -28.106
LeftArm  31.9643 -52.2528 -45.5415
LeftForeArm  6.16813 -5.00508 -18.7478
LeftHand  -0.0710924 0.181666 1.57822
RightShoulder  5.99933 7.89528 46.0718
RightArm  27.2081 -2.11012 17.7473
RightForeArm  6.61192 34.6315 7.3824
RightHand  0.325135 -0.673225 8.15027
LeftUpLeg  -15.2368 13.9805 7.70634
LeftLeg  6.17055 17.8493 -2.38571
LeftFoot  13.6415 -0.489559 1.83133
LeftToes  2.15783e-011 -7.56106e-012 -8.20802e-012
258
root  -52.1503 37.6535 77.0842 -3.55641 3.6873 1.53812
RightUpLeg  11.4099 8.40908 -7.16057
RightLeg  20.0687 -4.27652 -1.94207
RightFoot  -20.1152 1.22981 17.6915
RightToes  4.71047e-010 1.2921e-014 -6.02303e-014
Spine  5.19007 -5.32055 -13.9485
Spine1  2.99287 -8.52122 10.9149
HEad  12.9289 40.5631 -0.863889
LeftShoulder1  2.49513 -4.03548 -26.9955
LeftArm  23.7113 -57.1785 -46.7997
LeftForeArm  9.76093 -2.15691 -19.0312
LeftHand  -0.0428565 0.44767 0.960114
RightShoulder  5.67916 7.05193 47.1283
RightArm  30.3695 -1.86843 17.0638
RightForeArm  2.40747 28.8355 6.12355
RightHand  0.288696 -0.398058 6.80855
LeftUpLeg  -18.8319 23.2341 1.55214
LeftLeg  15.732 7.21016 1.60375
LeftFoot  8.54192 -0.34297 1.65946
LeftToes  2.15783e-011 -7.56106e-012 -8.20802e-012
